<svg width="64" height="64" viewBox="0 0 64 64" fill="none" xmlns="http://www.w3.org/2000/svg">
<g clip-path="url(#clip0_150_101)">
<path d="M61.4662 14.1214L32.4077 0.0931265C32.15 -0.0311235 31.85 -0.0311235 31.5925 0.0931265L2.5339 14.1214C2.2099 14.2778 2.00403 14.6059 2.00403 14.9656V49.0342C2.00403 49.394 2.2099 49.7221 2.5339 49.8785L31.5924 63.9067C31.7212 63.9689 31.8607 64 32 64C32.1394 64 32.2788 63.9689 32.4077 63.9067L61.4662 49.8785C61.7902 49.7221 61.996 49.394 61.996 49.0342V14.9658C61.996 14.6058 61.79 14.2779 61.4662 14.1214ZM32 1.9785L58.9022 14.9656L51.1038 18.7304C51.0544 18.6928 51.0023 18.658 50.945 18.6304L24.2257 5.73163L32 1.9785ZM22.1084 6.79163L48.9714 19.7599L43.4695 22.416L16.6177 9.453L22.1084 6.79163ZM49.5999 21.5384V31.3566L44.4608 33.8376V24.0194L49.5999 21.5384ZM60.121 48.446L32.9375 61.5687V29.5823L39.4216 26.452C39.8879 26.2269 40.0834 25.6665 39.8583 25.2001C39.6332 24.734 39.0728 24.5383 38.6064 24.7635L32 27.9529L29.4005 26.6979C28.9342 26.4725 28.3738 26.6683 28.1487 27.1345C27.9235 27.6008 28.119 28.1613 28.5853 28.3864L31.0625 29.5823V61.5687L3.87903 48.4458V16.4593L24.579 26.4524C24.7104 26.5159 24.8493 26.5459 24.9859 26.5459C25.3344 26.5459 25.6692 26.3506 25.8308 26.0158C26.0559 25.5495 25.8604 24.989 25.3942 24.7639L5.0979 14.9656L14.411 10.4696L42.5728 24.065C42.5769 24.0708 42.5815 24.0759 42.5858 24.0815V35.3314C42.5858 35.654 42.7517 35.9539 43.0249 36.1255C43.1767 36.2207 43.3498 36.2689 43.5234 36.2689C43.6624 36.2689 43.8018 36.238 43.9309 36.1756L50.945 32.7895C51.269 32.6331 51.4749 32.3051 51.4749 31.9453V20.6334L60.121 16.4594V48.446Z" fill="black"/>
<path d="M11.6158 44.8099L7.35138 42.7512C6.88488 42.5259 6.32464 42.7216 6.09951 43.1879C5.87439 43.6541 6.06989 44.2146 6.53614 44.4397L10.8005 46.4984C10.9319 46.5619 11.0708 46.5919 11.2074 46.5919C11.5559 46.5919 11.8906 46.3966 12.0523 46.0617C12.2775 45.5954 12.082 45.0351 11.6158 44.8099Z" fill="black"/>
<path d="M15.5404 42.2553L7.35723 38.3048C6.89085 38.0796 6.33048 38.2751 6.10535 38.7415C5.88035 39.2078 6.07585 39.7683 6.5421 39.9934L14.7252 43.9439C14.8566 44.0073 14.9955 44.0374 15.1321 44.0374C15.4806 44.0374 15.8154 43.8421 15.977 43.5073C16.2021 43.0408 16.0066 42.4803 15.5404 42.2553Z" fill="black"/>
</g>
<defs>
<clipPath id="clip0_150_101">
<rect width="64" height="64" fill="white"/>
</clipPath>
</defs>
</svg>
