<svg width="14" height="14" viewBox="0 0 14 14" fill="none" xmlns="http://www.w3.org/2000/svg">
<path d="M8.14015 7.00015L12.9858 2.15428C13.3011 1.83908 13.3011 1.32944 12.9858 1.01423C12.6706 0.699031 12.1609 0.699031 11.8457 1.01423L6.99998 5.8601L2.15436 1.01423C1.83902 0.699031 1.32954 0.699031 1.01434 1.01423C0.698996 1.32944 0.698996 1.83908 1.01434 2.15428L5.85996 7.00015L1.01434 11.846C0.698996 12.1612 0.698996 12.6709 1.01434 12.9861C1.17142 13.1433 1.37796 13.2223 1.58435 13.2223C1.79074 13.2223 1.99713 13.1433 2.15436 12.9861L6.99998 8.14019L11.8457 12.9861C12.003 13.1433 12.2094 13.2223 12.4158 13.2223C12.6221 13.2223 12.8285 13.1433 12.9858 12.9861C13.3011 12.6709 13.3011 12.1612 12.9858 11.846L8.14015 7.00015Z" fill="#D01345"/>
</svg>
