<svg width="35" height="35" viewBox="0 0 35 35" fill="none" xmlns="http://www.w3.org/2000/svg">
<path d="M17.5035 26.8077C17.4318 26.8075 17.3609 26.7918 17.2959 26.7615L8.4997 22.5308C8.41936 22.4909 8.35165 22.4295 8.30412 22.3535C8.25659 22.2774 8.23109 22.1897 8.23047 22.1V12.6308C8.23023 12.5499 8.25056 12.4703 8.28956 12.3994C8.32856 12.3285 8.38494 12.2687 8.4534 12.2257C8.52187 12.1826 8.60016 12.1576 8.68093 12.1531C8.76169 12.1487 8.84227 12.1648 8.91509 12.2L17.7112 16.4308C17.7916 16.4706 17.8593 16.532 17.9068 16.6081C17.9544 16.6841 17.9798 16.7719 17.9805 16.8615V26.3308C17.9805 26.4115 17.96 26.4908 17.921 26.5615C17.882 26.6321 17.8257 26.6917 17.7574 26.7346C17.6816 26.783 17.5934 26.8084 17.5035 26.8077ZM9.18432 21.8077L17.0266 25.5846V17.1654L9.18432 13.3885V21.8077Z" fill="#C2B280"/>
<path d="M17.5039 17.3346C17.4374 17.3394 17.3706 17.3302 17.3078 17.3077L8.51163 13.0769C8.42996 13.0389 8.36085 12.9783 8.31243 12.9024C8.26401 12.8264 8.23828 12.7382 8.23828 12.6481C8.23828 12.558 8.26401 12.4698 8.31243 12.3938C8.36085 12.3178 8.42996 12.2573 8.51163 12.2192L17.3078 7.96923C17.3721 7.93877 17.4424 7.92297 17.5135 7.92297C17.5847 7.92297 17.655 7.93877 17.7193 7.96923L26.5155 12.2C26.5964 12.2391 26.6646 12.3003 26.7122 12.3766C26.7598 12.4528 26.785 12.5409 26.7847 12.6308C26.7847 12.7201 26.7594 12.8076 26.7118 12.8831C26.6641 12.9587 26.5961 13.0192 26.5155 13.0577L17.6924 17.3077C17.632 17.3292 17.5679 17.3384 17.5039 17.3346ZM9.81163 12.6269L17.5039 16.3308L25.1962 12.6346L17.5039 8.92693L9.81163 12.6269Z" fill="#C2B280"/>
<path d="M17.5043 26.8077C17.4144 26.8084 17.3262 26.783 17.2504 26.7346C17.1821 26.6917 17.1258 26.6321 17.0868 26.5615C17.0478 26.4908 17.0273 26.4115 17.0273 26.3308V16.8654C17.0271 16.7755 17.0522 16.6874 17.0998 16.6112C17.1475 16.535 17.2157 16.4738 17.2966 16.4346L26.0927 12.2038C26.1655 12.1686 26.2461 12.1525 26.3269 12.157C26.4077 12.1615 26.486 12.1864 26.5544 12.2295C26.6229 12.2726 26.6793 12.3324 26.7183 12.4032C26.7573 12.4741 26.7776 12.5537 26.7773 12.6346V22.0962C26.7776 22.186 26.7525 22.2742 26.7049 22.3504C26.6572 22.4266 26.589 22.4878 26.5081 22.5269L17.6927 26.7615C17.6337 26.7897 17.5696 26.8054 17.5043 26.8077ZM17.9812 17.1654V25.5731L25.8235 21.7962V13.3885L17.9812 17.1654Z" fill="#C2B280"/>
<path d="M13.1039 15.2192C12.9968 15.2181 12.8932 15.181 12.8098 15.1139C12.7263 15.0468 12.6679 14.9535 12.6439 14.8491C12.62 14.7447 12.6318 14.6353 12.6776 14.5385C12.7233 14.4417 12.8004 14.3631 12.8962 14.3154L21.6962 10.0846C21.81 10.0304 21.9406 10.0234 22.0596 10.0652C22.1785 10.107 22.276 10.1942 22.3308 10.3077C22.3582 10.3639 22.3742 10.4251 22.3777 10.4875C22.3813 10.55 22.3725 10.6125 22.3518 10.6715C22.331 10.7306 22.2988 10.7849 22.2569 10.8314C22.215 10.8778 22.1643 10.9155 22.1078 10.9423L13.3116 15.1731C13.2464 15.2029 13.1756 15.2187 13.1039 15.2192Z" fill="#C2B280"/>
<path d="M14.2846 19.3731C14.2128 19.3734 14.1418 19.3576 14.0769 19.3269L11.4807 18.0769C11.4242 18.0502 11.3735 18.0125 11.3316 17.966C11.2897 17.9195 11.2575 17.8652 11.2367 17.8062C11.216 17.7472 11.2072 17.6846 11.2107 17.6222C11.2143 17.5597 11.2303 17.4986 11.2576 17.4423C11.3125 17.3288 11.41 17.2416 11.5289 17.1998C11.6478 17.158 11.7785 17.165 11.8923 17.2192L14.4884 18.4615C14.584 18.5091 14.6609 18.5874 14.7067 18.6838C14.7526 18.7803 14.7647 18.8893 14.7412 18.9935C14.7177 19.0976 14.66 19.1909 14.5772 19.2583C14.4944 19.3258 14.3913 19.3635 14.2846 19.3654V19.3731Z" fill="#C2B280"/>
<path d="M3.05415 23.7423C2.96107 23.7438 2.86959 23.718 2.791 23.6681C2.7124 23.6182 2.65012 23.5464 2.61185 23.4616C1.16823 19.8914 1.05635 15.9213 2.29663 12.2755C3.53692 8.6298 6.04667 5.55153 9.36793 3.60243C12.6892 1.65333 16.6005 0.96335 20.3882 1.65839C24.1759 2.35344 27.5875 4.38716 30.0003 7.38847C30.0451 7.43625 30.0795 7.49272 30.1015 7.55438C30.1234 7.61603 30.1325 7.68155 30.128 7.74686C30.1236 7.81216 30.1058 7.87585 30.0756 7.93396C30.0455 7.99208 30.0038 8.04337 29.953 8.08464C29.9022 8.12592 29.8434 8.1563 29.7804 8.17388C29.7173 8.19147 29.6513 8.19589 29.5865 8.18687C29.5217 8.17785 29.4594 8.15558 29.4035 8.12145C29.3477 8.08731 29.2994 8.04205 29.2618 7.98847C26.9921 5.17395 23.7875 3.26757 20.231 2.61604C16.6745 1.96451 13.0022 2.61113 9.88215 4.43828C6.76207 6.26543 4.40141 9.15174 3.22952 12.5723C2.05764 15.9928 2.15236 19.7203 3.49646 23.0769C3.52535 23.1493 3.53609 23.2275 3.52775 23.305C3.5194 23.3824 3.49223 23.4566 3.4486 23.5211C3.40497 23.5856 3.3462 23.6384 3.27745 23.675C3.20869 23.7115 3.13203 23.7307 3.05415 23.7308V23.7423Z" fill="#C2B280"/>
<path d="M17.5227 33.4961C15.1213 33.5018 12.7492 32.9681 10.5817 31.9342C8.41416 30.9004 6.50653 29.3929 4.99965 27.5231C4.92009 27.4211 4.8843 27.2916 4.90017 27.1632C4.91604 27.0348 4.98226 26.918 5.08427 26.8384C5.18627 26.7589 5.31571 26.7231 5.4441 26.739C5.57249 26.7548 5.68932 26.8211 5.76888 26.9231C8.05251 29.7343 11.2707 31.6308 14.8364 32.2665C18.402 32.9022 22.0773 32.2349 25.1918 30.3861C28.3063 28.5374 30.6523 25.6305 31.8018 22.1959C32.9513 18.7613 32.8277 15.0279 31.4535 11.6769C31.4277 11.6188 31.4137 11.556 31.4125 11.4924C31.4113 11.4288 31.4228 11.3656 31.4464 11.3065C31.47 11.2474 31.5051 11.1936 31.5498 11.1483C31.5945 11.103 31.6478 11.0671 31.7066 11.0427C31.7654 11.0184 31.8284 11.006 31.892 11.0064C31.9557 11.0067 32.0186 11.0198 32.0771 11.0449C32.1356 11.0699 32.1885 11.1064 32.2326 11.1522C32.2768 11.198 32.3114 11.2522 32.3343 11.3115C33.6446 14.5187 33.8892 18.0622 33.0318 21.4189C32.1744 24.7757 30.2606 27.7679 27.5727 29.9538C24.7271 32.2504 21.1795 33.5009 17.5227 33.4961Z" fill="#C2B280"/>
<path d="M29.6697 8.20002H29.6158L25.1735 7.71925C25.0542 7.69825 24.9474 7.63264 24.8747 7.53575C24.802 7.43885 24.7689 7.31792 24.7821 7.19752C24.7954 7.07711 24.8539 6.96624 24.9459 6.88742C25.0378 6.8086 25.1564 6.76772 25.2774 6.7731L29.2312 7.20002L29.6735 3.23079C29.6764 3.16562 29.6927 3.10173 29.7212 3.04308C29.7498 2.98443 29.7901 2.93227 29.8396 2.88982C29.8892 2.84736 29.9469 2.81553 30.0092 2.79627C30.0716 2.77702 30.1372 2.77075 30.202 2.77787C30.2669 2.78499 30.3296 2.80533 30.3862 2.83765C30.4429 2.86997 30.4923 2.91357 30.5315 2.96575C30.5706 3.01794 30.5987 3.0776 30.6138 3.14105C30.629 3.2045 30.631 3.27039 30.6197 3.33463L30.1428 7.77694C30.1285 7.9026 30.0648 8.01743 29.9658 8.09617C29.8821 8.16403 29.7775 8.20074 29.6697 8.20002Z" fill="#C2B280"/>
<path d="M4.86518 32.1039H4.81134C4.686 32.0903 4.57113 32.0277 4.49185 31.9296C4.41257 31.8316 4.37533 31.7062 4.38826 31.5808L4.86903 27.1385C4.87501 27.0764 4.89341 27.0161 4.92315 26.9613C4.95288 26.9064 4.99333 26.8581 5.04211 26.8193C5.14058 26.74 5.26632 26.7027 5.39211 26.7154L9.83441 27.1923C9.95315 27.2135 10.0594 27.2789 10.1319 27.3753C10.2044 27.4717 10.2376 27.592 10.2249 27.712C10.2122 27.8319 10.1546 27.9426 10.0636 28.0217C9.97257 28.1009 9.85495 28.1426 9.73441 28.1385L5.76903 27.7116L5.33441 31.6808C5.32209 31.7967 5.26738 31.9041 5.18078 31.9821C5.09418 32.0602 4.98179 32.1036 4.86518 32.1039Z" fill="#C2B280"/>
</svg>
