<svg width="25" height="25" viewBox="0 0 25 25" fill="none" xmlns="http://www.w3.org/2000/svg">
<mask id="path-1-inside-1_785_824" fill="white">
<path d="M20.6423 7.54661C20.4837 7.17697 20.159 6.40564 19.5151 4.82979C18.3764 2.04353 17.5738 1.50833 16.7287 1.56746C16.5114 1.58195 16.0132 1.61476 15.6548 4.02832C13.8833 4.41587 12.9469 5.17425 12.5001 5.67107C12.0532 5.17425 11.1169 4.41587 9.34531 4.02832C8.98692 1.61476 8.48872 1.58195 8.27187 1.56746C7.42043 1.51634 6.62354 2.04429 5.48505 4.82979C4.84113 6.40564 4.5165 7.17697 4.3578 7.54623C4.2758 7.73742 4.24618 7.94699 4.27199 8.15342C4.29781 8.35984 4.37812 8.55567 4.50468 8.72078C4.87616 9.1917 5.29925 9.95805 5.99128 9.9075C6.21625 9.95816 8.26251 9.16108 8.5179 9.09121C9.09121 10.2181 8.95125 11.1594 8.0037 13.3904C6.66589 16.4341 5.92317 22.7352 5.89227 23.0019C5.88633 23.0566 5.89194 23.1119 5.90873 23.1643C5.92551 23.2167 5.95311 23.265 5.98972 23.306C6.02634 23.3471 6.07117 23.38 6.1213 23.4026C6.17144 23.4253 6.22577 23.4372 6.28078 23.4375L13.4156 23.428C13.8803 23.4252 14.3319 23.2735 14.7041 22.995C15.0762 22.7166 15.3492 22.3262 15.483 21.8811L15.7664 20.9228L16.0325 21.8655C16.1615 22.3173 16.4339 22.715 16.8087 22.9986C17.1834 23.2822 17.6402 23.4362 18.1102 23.4375H18.7199C18.7749 23.4371 18.8292 23.4251 18.8792 23.4025C18.9293 23.3798 18.974 23.3468 19.0106 23.3058C19.0472 23.2647 19.0747 23.2165 19.0915 23.1641C19.1082 23.1118 19.1138 23.0565 19.1079 23.0019C19.077 22.7352 18.3343 16.4341 16.9964 13.3903C16.0496 11.1574 15.9071 10.2207 16.4823 9.09122L18.62 9.84115C18.853 9.92318 19.106 9.92934 19.3428 9.85876C19.5795 9.78818 19.7879 9.64448 19.938 9.44824L20.4953 8.72078C20.6219 8.55578 20.7023 8.36002 20.7281 8.15365C20.754 7.94728 20.7244 7.73775 20.6423 7.54661ZM19.8752 8.24547L19.3177 8.97293C19.2678 9.03849 19.1985 9.08652 19.1196 9.1101C19.0406 9.13369 18.9563 9.13161 18.8786 9.10415L16.6575 8.32493C16.7382 7.69149 16.7501 7.05117 16.693 6.41517C16.6823 6.31231 16.6312 6.21791 16.5509 6.15266C16.4707 6.08741 16.3679 6.05664 16.265 6.06709C16.1621 6.07755 16.0676 6.12837 16.0021 6.20842C15.9366 6.28847 15.9056 6.39122 15.9157 6.49413C15.965 6.98012 16.0092 8.39765 15.6289 9.11597C15.1204 10.0765 15.3277 11.5345 16.2812 13.7047C17.3751 16.1934 18.0825 21.1605 18.2772 22.6562C18.2772 22.6562 17.055 22.5237 16.7844 21.6534L16.1509 19.4099C16.1267 19.3295 16.0774 19.259 16.0101 19.2087C15.9429 19.1584 15.8613 19.131 15.7773 19.1304C15.6934 19.1299 15.6114 19.1564 15.5436 19.2058C15.4757 19.2553 15.4255 19.3253 15.4004 19.4054L14.7338 21.6598C14.6484 21.9439 14.4742 22.193 14.2367 22.3706C13.9992 22.5483 13.711 22.645 13.4144 22.6467L6.7229 22.6555C6.91782 21.159 7.62527 16.193 8.71894 13.7047C9.67242 11.5345 9.87975 10.0765 9.37125 9.11598C8.99093 8.39767 9.03517 6.98013 9.08439 6.49414C9.09455 6.39123 9.0635 6.28848 8.99803 6.20843C8.93256 6.12838 8.83802 6.07755 8.73514 6.0671C8.63225 6.05665 8.52942 6.08742 8.44919 6.15267C8.36896 6.21792 8.31788 6.31232 8.30714 6.41517C8.25002 7.05118 8.26193 7.6915 8.34264 8.32494L6.12151 9.10415C6.04384 9.13136 5.95955 9.13331 5.8807 9.10974C5.80184 9.08618 5.73246 9.03829 5.68245 8.97293L5.12474 8.24547C5.08261 8.19058 5.05584 8.12548 5.04716 8.05684C5.03848 7.9882 5.0482 7.91849 5.07534 7.85484C5.23555 7.48252 5.56209 6.70662 6.2083 5.12504C7.22816 2.62985 7.83031 2.36282 8.11909 2.34528C8.37219 3.00838 8.53718 3.70184 8.60983 4.40788C8.62076 4.48934 8.65713 4.56528 8.71374 4.62487C8.77035 4.68446 8.84432 4.72466 8.92511 4.73976C11.4297 5.20973 12.138 6.47354 12.1527 6.50062C12.1874 6.55993 12.2361 6.60978 12.2946 6.64576C12.3531 6.68174 12.4196 6.70275 12.4881 6.70692C12.5608 6.70744 12.6324 6.68865 12.6955 6.65248C12.7586 6.6163 12.8109 6.56403 12.8472 6.501C12.8539 6.48804 13.556 5.2124 16.075 4.73976C16.1558 4.72466 16.2298 4.68446 16.2864 4.62487C16.343 4.56528 16.3794 4.48934 16.3903 4.40788C16.4629 3.70184 16.6279 3.00838 16.881 2.34528C17.1696 2.36282 17.7718 2.62909 18.7918 5.12504C19.438 6.70662 19.7646 7.48252 19.9248 7.85522C19.9519 7.91881 19.9616 7.98848 19.9529 8.05707C19.9442 8.12566 19.9174 8.19068 19.8752 8.24547Z"/>
</mask>
<path d="M20.6423 7.54661L22.4803 6.758L22.4801 6.75763L20.6423 7.54661ZM19.5151 4.82979L21.3665 4.07327L21.3665 4.07318L19.5151 4.82979ZM16.7287 1.56746L16.8618 3.56303L16.8682 3.56258L16.7287 1.56746ZM15.6548 4.02832L16.0822 5.98211L17.4304 5.68718L17.6331 4.32207L15.6548 4.02832ZM12.5001 5.67107L11.0131 7.00857L12.5001 8.66172L13.987 7.00857L12.5001 5.67107ZM9.34531 4.02832L7.367 4.32208L7.56971 5.68718L8.91789 5.98211L9.34531 4.02832ZM8.27187 1.56746L8.40524 -0.428135L8.39173 -0.428946L8.27187 1.56746ZM5.48505 4.82979L3.63371 4.0731L3.63364 4.07327L5.48505 4.82979ZM4.3578 7.54623L2.5203 6.75656L2.51975 6.75784L4.3578 7.54623ZM4.50468 8.72078L2.91736 9.9375L2.92582 9.94854L2.93443 9.95945L4.50468 8.72078ZM5.99128 9.9075L6.43068 7.95636L6.14135 7.8912L5.84556 7.91281L5.99128 9.9075ZM8.5179 9.09121L10.3005 8.18433L9.56169 6.73217L7.99016 7.16209L8.5179 9.09121ZM8.0037 13.3904L9.83465 14.1951L9.83967 14.1837L9.84454 14.1722L8.0037 13.3904ZM5.89227 23.0019L3.90557 22.7716L3.90474 22.7788L3.90395 22.786L5.89227 23.0019ZM6.28078 23.4375L6.2686 25.4375L6.27603 25.4375L6.28345 25.4375L6.28078 23.4375ZM13.4156 23.428L13.4183 25.428L13.4275 25.4279L13.4156 23.428ZM15.483 21.8811L17.3983 22.4568L17.4008 22.4484L15.483 21.8811ZM15.7664 20.9228L17.6912 20.3795L15.8113 13.7197L13.8485 20.3556L15.7664 20.9228ZM16.0325 21.8655L14.1077 22.4088L14.1093 22.4145L16.0325 21.8655ZM18.1102 23.4375L18.1046 25.4375H18.1102V23.4375ZM18.7199 23.4375V25.4375H18.7275L18.735 25.4374L18.7199 23.4375ZM19.1079 23.0019L21.0962 22.786L21.0954 22.7788L21.0946 22.7717L19.1079 23.0019ZM16.9964 13.3903L15.1551 14.1711L15.1602 14.1831L15.1655 14.1951L16.9964 13.3903ZM16.4823 9.09122L17.1443 7.20398L15.4938 6.62496L14.7 8.18364L16.4823 9.09122ZM18.62 9.84115L19.284 7.9546L19.282 7.95391L18.62 9.84115ZM19.938 9.44824L18.3503 8.23192L18.3493 8.23327L19.938 9.44824ZM20.4953 8.72078L18.9086 7.50323L18.9077 7.50446L20.4953 8.72078ZM19.8752 8.24547L18.2905 7.02531L18.2878 7.02888L19.8752 8.24547ZM19.3177 8.97293L17.7303 7.75633L17.7257 7.76236L19.3177 8.97293ZM18.8786 9.10415L19.5453 7.21852L19.5407 7.21692L18.8786 9.10415ZM16.6575 8.32493L14.6735 8.07214L14.4691 9.6767L15.9954 10.2122L16.6575 8.32493ZM16.693 6.41517L18.685 6.23628L18.6837 6.2219L18.6822 6.20754L16.693 6.41517ZM15.9157 6.49413L13.9254 6.6908L13.9259 6.69565L15.9157 6.49413ZM15.6289 9.11597L13.8613 8.18013L13.8613 8.18023L15.6289 9.11597ZM16.2812 13.7047L14.4501 14.5092L14.4502 14.5094L16.2812 13.7047ZM18.2772 22.6562L18.0616 24.6446L20.5887 24.9186L20.2605 22.398L18.2772 22.6562ZM16.7844 21.6534L14.8596 22.1968L14.8668 22.2222L14.8746 22.2473L16.7844 21.6534ZM16.1509 19.4099L18.0757 18.8665L18.071 18.8501L18.0661 18.8337L16.1509 19.4099ZM15.4004 19.4054L13.4923 18.8059L13.4873 18.8221L13.4825 18.8383L15.4004 19.4054ZM14.7338 21.6598L16.6491 22.2356L16.6517 22.2269L14.7338 21.6598ZM13.4144 22.6467L13.4171 24.6467L13.4258 24.6467L13.4144 22.6467ZM6.7229 22.6555L4.73965 22.3972L4.44511 24.6585L6.72552 24.6555L6.7229 22.6555ZM8.71894 13.7047L10.5499 14.5094L10.55 14.5092L8.71894 13.7047ZM9.37125 9.11598L11.1388 8.18023L11.1388 8.18012L9.37125 9.11598ZM9.08439 6.49414L11.0742 6.69563L11.0747 6.69081L9.08439 6.49414ZM8.30714 6.41517L6.31795 6.20755L6.31645 6.22191L6.31516 6.23629L8.30714 6.41517ZM8.34264 8.32494L9.00472 10.2122L10.5311 9.67671L10.3266 8.07214L8.34264 8.32494ZM6.12151 9.10415L6.78255 10.9918L6.78359 10.9914L6.12151 9.10415ZM5.68245 8.97293L7.27087 7.75764L7.26967 7.75608L5.68245 8.97293ZM5.12474 8.24547L6.71196 7.02861L6.7113 7.02776L5.12474 8.24547ZM5.07534 7.85484L3.2382 7.06429L3.23559 7.07043L5.07534 7.85484ZM6.2083 5.12504L4.35698 4.36835L4.35688 4.36858L6.2083 5.12504ZM8.11909 2.34528L9.9876 1.63209L9.46385 0.259874L7.99778 0.348958L8.11909 2.34528ZM8.60983 4.40788L6.62034 4.61261L6.6235 4.64333L6.62761 4.67393L8.60983 4.40788ZM8.92511 4.73976L9.29397 2.77407L9.29242 2.77378L8.92511 4.73976ZM12.1527 6.50062L10.3946 7.4541L10.4098 7.482L10.4258 7.50941L12.1527 6.50062ZM12.4881 6.70692L12.3666 8.70323L12.4201 8.70648L12.4738 8.70687L12.4881 6.70692ZM12.8472 6.501L14.5806 7.49863L14.6036 7.45864L14.6248 7.41764L12.8472 6.501ZM16.075 4.73976L15.7077 2.77378L15.7062 2.77406L16.075 4.73976ZM16.3903 4.40788L18.3725 4.67393L18.3766 4.64333L18.3798 4.61262L16.3903 4.40788ZM16.881 2.34528L17.0024 0.348962L15.5363 0.259817L15.0125 1.63207L16.881 2.34528ZM18.7918 5.12504L20.6432 4.36858L20.6432 4.36843L18.7918 5.12504ZM19.9248 7.85522L21.7643 7.07012L21.7622 7.06536L19.9248 7.85522ZM22.4801 6.75763C22.3282 6.40366 22.0086 5.64467 21.3665 4.07327L17.6637 5.5863C18.3094 7.16661 18.6391 7.95028 18.8045 8.3356L22.4801 6.75763ZM21.3665 4.07318C20.7743 2.62422 20.1765 1.51032 19.4654 0.757848C19.0873 0.357824 18.641 0.0202032 18.1081 -0.194577C17.5658 -0.413134 17.0452 -0.459576 16.5891 -0.427664L16.8682 3.56258C16.8347 3.56493 16.7314 3.56321 16.6128 3.51545C16.5037 3.47146 16.4877 3.43069 16.5583 3.50536C16.7444 3.70228 17.1172 4.2491 17.6637 5.58639L21.3665 4.07318ZM16.5955 -0.428106C16.508 -0.422266 16.0769 -0.403849 15.6013 -0.158033C15.1296 0.0857766 14.7923 0.451728 14.5528 0.83167C14.1237 1.51226 13.864 2.47189 13.6765 3.73457L17.6331 4.32207C17.7138 3.7788 17.7953 3.41936 17.8624 3.19042C17.932 2.95332 17.9703 2.91122 17.9365 2.96481C17.8935 3.03304 17.7439 3.23723 17.4379 3.39538C17.1281 3.55555 16.8407 3.56443 16.8618 3.56302L16.5955 -0.428106ZM15.2274 2.07452C13.0362 2.55388 11.7325 3.53371 11.0131 4.33357L13.987 7.00857C14.1613 6.81479 14.7303 6.27786 16.0822 5.98211L15.2274 2.07452ZM13.987 4.33357C13.2676 3.53371 11.9639 2.55388 9.77273 2.07452L8.91789 5.98211C10.2698 6.27786 10.8388 6.81479 11.0131 7.00857L13.987 4.33357ZM11.3236 3.73456C11.1361 2.47181 10.8764 1.51234 10.4475 0.83186C10.2081 0.452039 9.87102 0.0861048 9.39949 -0.157778C8.92392 -0.403751 8.49282 -0.422236 8.40524 -0.428089L8.13851 3.56301C8.15935 3.5644 7.87184 3.55545 7.56187 3.39513C7.25594 3.2369 7.10645 3.03273 7.06352 2.96462C7.0298 2.91111 7.06817 2.95328 7.13769 3.19039C7.20483 3.41936 7.28633 3.77881 7.367 4.32208L11.3236 3.73456ZM8.39173 -0.428946C7.94221 -0.455934 7.42637 -0.408124 6.88749 -0.190191C6.35674 0.0244538 5.91129 0.360582 5.53285 0.760835C4.82185 1.51281 4.22545 2.62535 3.63371 4.0731L7.33638 5.58647C7.88314 4.24873 8.25443 3.70455 8.43936 3.50895C8.50889 3.43542 8.49346 3.47505 8.38717 3.51804C8.27276 3.56431 8.17582 3.56529 8.15202 3.56386L8.39173 -0.428946ZM3.63364 4.07327C2.99146 5.64488 2.67204 6.40348 2.5203 6.75656L6.19531 8.3359C6.36095 7.95046 6.6908 7.16639 7.33645 5.5863L3.63364 4.07327ZM2.51975 6.75784C2.29775 7.27541 2.21757 7.84276 2.28745 8.40158L6.25654 7.90525C6.27479 8.05123 6.25385 8.19943 6.19586 8.33462L2.51975 6.75784ZM2.28745 8.40158C2.35733 8.9604 2.57475 9.49054 2.91736 9.9375L6.092 7.50405C6.18149 7.62081 6.23828 7.75928 6.25654 7.90525L2.28745 8.40158ZM2.93443 9.95945C2.93794 9.9639 3.37136 10.5741 3.69777 10.9079C4.10666 11.3261 4.92936 11.9904 6.137 11.9022L5.84556 7.91281C5.95295 7.90497 6.06249 7.91292 6.168 7.93581C6.27197 7.95836 6.357 7.99211 6.42072 8.02429C6.5393 8.08416 6.58439 8.13866 6.55778 8.11145C6.53177 8.08485 6.48496 8.03038 6.39772 7.91379C6.35298 7.854 6.31512 7.80178 6.25815 7.7243C6.20742 7.65531 6.1435 7.56903 6.07493 7.4821L2.93443 9.95945ZM5.55188 11.8586C5.90839 11.9389 6.20812 11.9027 6.2767 11.895C6.39955 11.8812 6.5075 11.8598 6.58194 11.8435C6.73405 11.8102 6.89026 11.7659 7.02327 11.7257C7.29645 11.6432 7.6167 11.5336 7.90861 11.4306C8.20458 11.3262 8.50268 11.2175 8.72808 11.1358C9.01407 11.0322 9.08224 11.0103 9.04564 11.0203L7.99016 7.16209C7.87758 7.19289 7.74891 7.2381 7.68264 7.26137C7.59149 7.29338 7.48132 7.3331 7.36594 7.37489C7.12881 7.46077 6.8534 7.56125 6.57776 7.6585C6.29806 7.75718 6.0486 7.84167 5.86685 7.89655C5.82347 7.90966 5.78887 7.91957 5.76244 7.92674C5.73483 7.93423 5.72378 7.93664 5.72598 7.93616C5.72762 7.9358 5.73664 7.93384 5.75173 7.93118C5.766 7.92866 5.79355 7.92411 5.83115 7.91989C5.86614 7.91597 5.93003 7.91001 6.01293 7.90982C6.08568 7.90965 6.23914 7.91323 6.43068 7.95636L5.55188 11.8586ZM6.73533 9.99809C6.85603 10.2353 6.87482 10.3524 6.84652 10.579C6.80213 10.9346 6.63139 11.5054 6.16285 12.6085L9.84454 14.1722C10.3236 13.0444 10.6966 12.029 10.8157 11.0745C10.951 9.99103 10.7531 9.07397 10.3005 8.18433L6.73533 9.99809ZM6.17275 12.5856C5.39859 14.347 4.84629 16.8942 4.48931 18.8844C4.12233 20.9305 3.92342 22.6176 3.90557 22.7716L7.87898 23.2321C7.89203 23.1195 8.07993 21.5228 8.42648 19.5906C8.78304 17.6027 9.271 15.4775 9.83465 14.1951L6.17275 12.5856ZM3.90395 22.786C3.86782 23.1189 3.90193 23.4557 4.0041 23.7745L7.81335 22.554C7.88195 22.7681 7.90485 22.9942 7.88059 23.2177L3.90395 22.786ZM4.0041 23.7745C4.10627 24.0934 4.27422 24.3873 4.49709 24.6372L7.48236 21.9748C7.63199 22.1426 7.74475 22.3399 7.81335 22.554L4.0041 23.7745ZM4.49709 24.6372C4.71995 24.8871 4.99278 25.0874 5.29793 25.2253L6.94467 21.58C7.14955 21.6725 7.33273 21.8071 7.48236 21.9748L4.49709 24.6372ZM5.29793 25.2253C5.6031 25.3631 5.93378 25.4354 6.2686 25.4375L6.29296 21.4375C6.51775 21.4389 6.73977 21.4874 6.94467 21.58L5.29793 25.2253ZM6.28345 25.4375L13.4183 25.428L13.4129 21.428L6.27811 21.4375L6.28345 25.4375ZM13.4275 25.4279C14.3201 25.4226 15.1875 25.1312 15.9022 24.5964L13.5059 21.3937C13.4764 21.4158 13.4406 21.4278 13.4037 21.428L13.4275 25.4279ZM15.9022 24.5964C16.617 24.0616 17.1414 23.3117 17.3983 22.4568L13.5676 21.3054C13.557 21.3407 13.5354 21.3716 13.5059 21.3937L15.9022 24.5964ZM17.4008 22.4484L17.6843 21.4901L13.8485 20.3556L13.5651 21.3138L17.4008 22.4484ZM13.8416 21.4662L14.1077 22.4088L17.9573 21.3221L17.6912 20.3795L13.8416 21.4662ZM14.1093 22.4145C14.3574 23.2835 14.8813 24.0482 15.6019 24.5935L18.0154 21.4037C17.9866 21.3819 17.9656 21.3512 17.9556 21.3164L14.1093 22.4145ZM15.6019 24.5935C16.3226 25.1388 17.2009 25.435 18.1046 25.4375L18.1157 21.4375C18.0795 21.4374 18.0443 21.4255 18.0154 21.4037L15.6019 24.5935ZM18.1102 25.4375H18.7199V21.4375H18.1102V25.4375ZM18.735 25.4374C19.0696 25.4349 19.3999 25.3623 19.7046 25.2242L18.0539 21.5807C18.2584 21.488 18.4802 21.4392 18.7048 21.4376L18.735 25.4374ZM19.7046 25.2242C20.0093 25.0861 20.2817 24.8857 20.5042 24.6359L17.517 21.9757C17.6664 21.808 17.8493 21.6734 18.0539 21.5807L19.7046 25.2242ZM20.5042 24.6359C20.7267 24.386 20.8943 24.0923 20.9963 23.7737L17.1866 22.5546C17.2551 22.3406 17.3676 22.1434 17.517 21.9757L20.5042 24.6359ZM20.9963 23.7737C21.0983 23.4551 21.1323 23.1186 21.0962 22.786L17.1196 23.2177C17.0953 22.9944 17.1182 22.7685 17.1866 22.5546L20.9963 23.7737ZM21.0946 22.7717C21.0767 22.6176 20.8778 20.9304 20.5108 18.8844C20.1539 16.8942 19.6015 14.3469 18.8274 12.5856L15.1655 14.1951C15.7291 15.4775 16.2171 17.6027 16.5737 19.5906C16.9202 21.5227 17.1081 23.1195 17.1212 23.232L21.0946 22.7717ZM18.8377 12.6096C18.3688 11.5035 18.1976 10.9335 18.153 10.5781C18.1248 10.3533 18.143 10.2374 18.2645 9.9988L14.7 8.18364C14.2464 9.07453 14.0482 9.99179 14.1841 11.0759C14.3038 12.0294 14.6773 13.0442 15.1551 14.1711L18.8377 12.6096ZM15.8202 10.9785L17.9579 11.7284L19.282 7.95391L17.1443 7.20398L15.8202 10.9785ZM17.956 11.7277C18.5873 11.9499 19.2728 11.9666 19.9142 11.7754L18.7714 7.94212C18.9393 7.89206 19.1187 7.89643 19.284 7.95461L17.956 11.7277ZM19.9142 11.7754C20.5556 11.5842 21.12 11.1949 21.5266 10.6632L18.3493 8.23327C18.4557 8.09409 18.6035 7.99218 18.7714 7.94212L19.9142 11.7754ZM21.5256 10.6646L22.0829 9.9371L18.9077 7.50446L18.3503 8.23192L21.5256 10.6646ZM22.082 9.93832C22.4249 9.49141 22.6426 8.96119 22.7126 8.4022L18.7436 7.90509C18.7619 7.75885 18.8189 7.62014 18.9086 7.50323L22.082 9.93832ZM22.7126 8.4022C22.7826 7.84322 22.7024 7.27569 22.4803 6.758L18.8044 8.33523C18.7463 8.1998 18.7253 8.05133 18.7436 7.90509L22.7126 8.4022ZM18.2878 7.02888L17.7303 7.75634L20.9051 10.1895L21.4626 9.46205L18.2878 7.02888ZM17.7257 7.76236C17.9323 7.49067 18.2198 7.2916 18.5468 7.19386L19.6923 11.0263C20.1771 10.8814 20.6034 10.5863 20.9097 10.1835L17.7257 7.76236ZM18.5468 7.19386C18.8738 7.09612 19.2235 7.10476 19.5453 7.21853L18.212 10.9898C18.6891 11.1585 19.2074 11.1713 19.6923 11.0263L18.5468 7.19386ZM19.5407 7.21692L17.3196 6.4377L15.9954 10.2122L18.2166 10.9914L19.5407 7.21692ZM18.6414 8.57773C18.7404 7.8011 18.755 7.01604 18.685 6.23628L14.701 6.59405C14.7452 7.0863 14.736 7.58188 14.6735 8.07214L18.6414 8.57773ZM18.6822 6.20754C18.6165 5.57808 18.3039 5.00034 17.8128 4.60101L15.289 7.70431C14.9585 7.43548 14.748 7.04655 14.7038 6.62279L18.6822 6.20754ZM17.8128 4.60101C17.3218 4.20169 16.6925 4.01337 16.0628 4.07734L16.4671 8.05685C16.0433 8.09992 15.6196 7.97314 15.289 7.70431L17.8128 4.60101ZM16.0628 4.07734C15.4332 4.14131 14.8546 4.45235 14.4539 4.94226L17.5503 7.47458C17.2805 7.80439 16.891 8.01379 16.4671 8.05685L16.0628 4.07734ZM14.4539 4.94226C14.0533 5.43217 13.8632 6.06097 13.9254 6.6908L17.906 6.29746C17.9479 6.72147 17.82 7.14478 17.5503 7.47458L14.4539 4.94226ZM13.9259 6.69565C13.9407 6.8418 13.9603 7.20978 13.937 7.59801C13.9256 7.78837 13.9056 7.95172 13.8803 8.0773C13.8523 8.21659 13.8326 8.23442 13.8613 8.18013L17.3964 10.0518C17.7994 9.29071 17.8967 8.38852 17.9298 7.83784C17.9671 7.21623 17.94 6.63245 17.9056 6.29261L13.9259 6.69565ZM13.8613 8.18023C13.347 9.15175 13.2819 10.2196 13.4267 11.2382C13.5702 12.2473 13.9373 13.3419 14.4501 14.5092L18.1123 12.9002C17.6716 11.8972 17.4583 11.1777 17.3869 10.6752C17.3523 10.4319 17.3558 10.2713 17.3676 10.1744C17.3733 10.1272 17.3808 10.0965 17.3862 10.0788C17.3914 10.0615 17.3955 10.0536 17.3965 10.0517L13.8613 8.18023ZM14.4502 14.5094C14.9 15.5328 15.3172 17.2049 15.6531 18.9342C15.98 20.6171 16.1993 22.1876 16.294 22.9145L20.2605 22.398C20.1604 21.6292 19.9287 19.9682 19.5797 18.1715C19.2397 16.421 18.7562 14.3653 18.1121 12.8999L14.4502 14.5094ZM18.2772 22.6562C18.4928 20.6679 18.4935 20.668 18.4942 20.668C18.4944 20.6681 18.495 20.6681 18.4954 20.6682C18.4963 20.6683 18.4971 20.6684 18.4979 20.6685C18.4996 20.6686 18.5012 20.6688 18.5027 20.669C18.5057 20.6693 18.5085 20.6697 18.511 20.67C18.5161 20.6706 18.5203 20.6711 18.5236 20.6715C18.5302 20.6724 18.5336 20.6729 18.534 20.673C18.5347 20.6731 18.5256 20.6717 18.51 20.6683C18.4736 20.6603 18.4337 20.6485 18.4039 20.636C18.2797 20.5841 18.5697 20.6593 18.6941 21.0594L14.8746 22.2473C15.2697 23.5178 16.3061 24.0944 16.8607 24.3263C17.1703 24.4558 17.4528 24.5315 17.6541 24.5756C17.7573 24.5982 17.8458 24.614 17.9143 24.6247C17.9488 24.6301 17.9786 24.6343 18.0033 24.6375C18.0156 24.6392 18.0267 24.6405 18.0364 24.6417C18.0413 24.6423 18.0458 24.6428 18.05 24.6433C18.0521 24.6435 18.0541 24.6438 18.0561 24.644C18.057 24.6441 18.058 24.6442 18.0589 24.6443C18.0594 24.6443 18.0601 24.6444 18.0603 24.6444C18.061 24.6445 18.0616 24.6446 18.2772 22.6562ZM18.7091 21.1099L18.0757 18.8665L14.2262 19.9534L14.8596 22.1968L18.7091 21.1099ZM18.0661 18.8337C17.9187 18.3437 17.618 17.9138 17.2082 17.6073L14.8121 20.8101C14.5368 20.6042 14.3348 20.3154 14.2357 19.9862L18.0661 18.8337ZM17.2082 17.6073C16.7985 17.3007 16.3012 17.1336 15.7895 17.1305L15.7652 21.1304C15.4214 21.1283 15.0873 21.0161 14.8121 20.8101L17.2082 17.6073ZM15.7895 17.1305C15.2778 17.1274 14.7785 17.2884 14.3651 17.59L16.7221 20.8217C16.4444 21.0243 16.109 21.1325 15.7652 21.1304L15.7895 17.1305ZM14.3651 17.59C13.9516 17.8915 13.6457 18.3177 13.4923 18.8059L17.3084 20.0048C17.2054 20.3328 16.9999 20.6191 16.7221 20.8217L14.3651 17.59ZM13.4825 18.8383L12.8158 21.0927L16.6517 22.2269L17.3183 19.9725L13.4825 18.8383ZM12.8184 21.0841C12.8563 20.9582 12.9335 20.8478 13.0387 20.7691L15.4346 23.9722C16.0148 23.5382 16.4405 22.9295 16.6491 22.2356L12.8184 21.0841ZM13.0387 20.7691C13.144 20.6904 13.2717 20.6475 13.4031 20.6467L13.4258 24.6467C14.1503 24.6426 14.8544 24.4062 15.4346 23.9722L13.0387 20.7691ZM13.4118 20.6467L6.72027 20.6555L6.72552 24.6555L13.4171 24.6467L13.4118 20.6467ZM8.70614 22.9138C8.80088 22.1865 9.0203 20.6161 9.34718 18.9334C9.68306 17.2044 10.1002 15.5326 10.5499 14.5094L6.88799 12.8999C6.24402 14.3651 5.76059 16.4204 5.42059 18.1706C5.0716 19.9671 4.83984 21.628 4.73965 22.3972L8.70614 22.9138ZM10.55 14.5092C11.0628 13.342 11.43 12.2473 11.5734 11.2382C11.7182 10.2196 11.6532 9.15175 11.1388 8.18023L7.60366 10.0517C7.60467 10.0536 7.60871 10.0615 7.61393 10.0788C7.61929 10.0965 7.62682 10.1272 7.63256 10.1745C7.64434 10.2714 7.64784 10.4319 7.61325 10.6752C7.5418 11.1777 7.32853 11.8972 6.88787 12.9002L10.55 14.5092ZM11.1388 8.18012C11.1675 8.23442 11.1478 8.21661 11.1198 8.07732C11.0945 7.95174 11.0746 7.78839 11.0631 7.59803C11.0398 7.2098 11.0594 6.8418 11.0742 6.69563L7.09456 6.29265C7.06015 6.63247 7.033 7.21624 7.07034 7.83785C7.10341 8.38852 7.20073 9.29073 7.60372 10.0518L11.1388 8.18012ZM11.0747 6.69081C11.1369 6.06098 10.9469 5.43218 10.5462 4.94227L7.44986 7.47459C7.18013 7.14478 7.05218 6.72147 7.09408 6.29747L11.0747 6.69081ZM10.5462 4.94227C10.1455 4.45236 9.56694 4.14131 8.93729 4.07734L8.53299 8.05686C8.1091 8.01379 7.71959 7.8044 7.44986 7.47459L10.5462 4.94227ZM8.93729 4.07734C8.30764 4.01337 7.67831 4.2017 7.1873 4.60102L9.71108 7.70432C9.38053 7.97315 8.95687 8.09992 8.53299 8.05686L8.93729 4.07734ZM7.1873 4.60102C6.69628 5.00034 6.38365 5.57807 6.31795 6.20755L10.2963 6.6228C10.2521 7.04656 10.0416 7.4355 9.71108 7.70432L7.1873 4.60102ZM6.31516 6.23629C6.24513 7.01605 6.25972 7.80111 6.35868 8.57773L10.3266 8.07214C10.2641 7.58188 10.2549 7.0863 10.2991 6.59406L6.31516 6.23629ZM7.68056 6.4377L5.45943 7.21692L6.78359 10.9914L9.00472 10.2122L7.68056 6.4377ZM5.46047 7.21656C5.78075 7.10439 6.12828 7.09632 6.45342 7.1935L5.30797 11.026C5.79082 11.1703 6.30692 11.1583 6.78255 10.9918L5.46047 7.21656ZM6.45342 7.1935C6.77857 7.29068 7.06467 7.48813 7.27087 7.75765L4.09402 10.1882C4.40024 10.5884 4.82512 10.8817 5.30797 11.026L6.45342 7.1935ZM7.26967 7.75608L6.71196 7.02861L3.53752 9.46232L4.09523 10.1898L7.26967 7.75608ZM6.7113 7.02776C6.88509 7.25419 6.99555 7.52275 7.03135 7.80592L3.06296 8.30776C3.11613 8.72821 3.28013 9.12697 3.53817 9.46317L6.7113 7.02776ZM7.03135 7.80592C7.06716 8.08909 7.02704 8.37669 6.91509 8.63926L3.23559 7.07043C3.06936 7.46028 3.00979 7.88731 3.06296 8.30776L7.03135 7.80592ZM6.91246 8.64539C7.07993 8.25623 7.41188 7.46708 8.05972 5.88151L4.35688 4.36858C3.7123 5.94616 3.39118 6.70882 3.23821 7.06429L6.91246 8.64539ZM8.05963 5.88174C8.54102 4.70398 8.85592 4.22998 8.98077 4.0786C9.03454 4.01341 8.9979 4.07659 8.85639 4.15986C8.68734 4.25933 8.47132 4.32756 8.24039 4.34159L7.99778 0.348958C7.13524 0.401368 6.44143 0.870887 5.89494 1.53348C5.39156 2.1438 4.89545 3.05091 4.35698 4.36835L8.05963 5.88174ZM6.25057 3.05846C6.44127 3.55811 6.56559 4.08062 6.62034 4.61261L10.5993 4.20315C10.5088 3.32306 10.3031 2.45866 9.9876 1.63209L6.25057 3.05846ZM6.62761 4.67393C6.69454 5.17265 6.91715 5.63754 7.26373 6.00236L10.1637 3.24738C10.3971 3.49302 10.547 3.80604 10.5921 4.14183L6.62761 4.67393ZM7.26373 6.00236C7.6103 6.36718 8.06316 6.61333 8.55781 6.70574L9.29242 2.77378C9.62547 2.836 9.93039 3.00174 10.1637 3.24738L7.26373 6.00236ZM8.55626 6.70545C10.3968 7.05083 10.6301 7.88828 10.3946 7.4541L13.9108 5.54715C13.646 5.0588 12.4625 3.36863 9.29397 2.77407L8.55626 6.70545ZM10.4258 7.50941C10.6262 7.85259 10.9082 8.14106 11.2468 8.34929L13.3424 4.94223C13.564 5.07849 13.7485 5.26726 13.8797 5.49183L10.4258 7.50941ZM11.2468 8.34929C11.5853 8.55752 11.9699 8.67908 12.3666 8.70323L12.6096 4.71061C12.8692 4.72641 13.1209 4.80596 13.3424 4.94223L11.2468 8.34929ZM12.4738 8.70687C12.9005 8.70993 13.3203 8.59969 13.6904 8.38742L11.7005 4.91753C11.9445 4.77762 12.2212 4.70495 12.5025 4.70697L12.4738 8.70687ZM13.6904 8.38742C14.0606 8.17515 14.3678 7.86845 14.5806 7.49863L11.1138 5.50337C11.2541 5.2596 11.4565 5.05744 11.7005 4.91753L13.6904 8.38742ZM14.6248 7.41764C14.3734 7.905 14.5821 7.05477 16.4438 6.70546L15.7062 2.77406C12.5299 3.37003 11.3343 5.07107 11.0696 5.58435L14.6248 7.41764ZM16.4423 6.70574C16.937 6.61333 17.3898 6.36718 17.7364 6.00236L14.8364 3.24738C15.0697 3.00174 15.3746 2.836 15.7077 2.77378L16.4423 6.70574ZM17.7364 6.00236C18.083 5.63754 18.3056 5.17266 18.3725 4.67393L14.4081 4.14183C14.4531 3.80602 14.603 3.49301 14.8364 3.24738L17.7364 6.00236ZM18.3798 4.61262C18.4345 4.08063 18.5588 3.55812 18.7496 3.05848L15.0125 1.63207C14.697 2.45865 14.4914 3.32305 14.4008 4.20314L18.3798 4.61262ZM16.7597 4.34159C16.5293 4.32758 16.3134 4.25959 16.1441 4.16006C16.0025 4.07675 15.9657 4.01345 16.0194 4.07851C16.1441 4.22967 16.459 4.70353 16.9405 5.88166L20.6432 4.36843C20.1046 3.0506 19.6084 2.14335 19.1049 1.533C18.5579 0.86996 17.8641 0.401356 17.0024 0.348962L16.7597 4.34159ZM16.9404 5.88151C17.5883 7.4673 17.9201 8.25605 18.0874 8.64509L21.7622 7.06536C21.609 6.709 21.2877 5.94594 20.6432 4.36858L16.9404 5.88151ZM18.0853 8.64033C17.973 8.37715 17.9328 8.08882 17.9689 7.80499L21.937 8.30915C21.9905 7.88814 21.9309 7.46047 21.7643 7.07012L18.0853 8.64033ZM17.9689 7.80499C18.0049 7.52115 18.116 7.25203 18.2905 7.02531L21.4599 9.46562C21.7188 9.12934 21.8835 8.73016 21.937 8.30915L17.9689 7.80499Z" fill="black" mask="url(#path-1-inside-1_785_824)"/>
</svg>
