<svg width="20" height="21" viewBox="0 0 20 21" fill="none" xmlns="http://www.w3.org/2000/svg">
<g clip-path="url(#clip0_785_831)">
<path d="M13.6109 3.49136H11.6469C11.7164 2.58487 11.4224 1.65316 10.7634 0.961228C9.57117 -0.290569 7.63129 -0.290569 6.43902 0.961228L5.82953 1.60119L5.22004 0.961228C4.02777 -0.290651 2.08785 -0.29061 0.895625 0.961269C0.318086 1.56764 0 2.37397 0 3.23157C0 4.08916 0.318047 4.89545 0.895625 5.50186L2.3734 7.05352C1.88461 8.0187 1.62777 9.09635 1.62777 10.2C1.62777 13.8991 4.49395 16.9086 8.01695 16.9086H8.9718L13.1356 20.9775V16.9086H13.6109C17.1339 16.9086 20 13.8991 20 10.2C20 6.50084 17.1338 3.49136 13.6109 3.49136ZM1.72496 1.83203C2.09246 1.44616 2.57508 1.25326 3.05781 1.25326C3.54043 1.25326 4.02324 1.44624 4.39066 1.83203L5.82949 3.3428L7.26832 1.83203C8.00328 1.0604 9.19906 1.06036 9.93406 1.83207C10.2901 2.20589 10.4861 2.70287 10.4861 3.23157C10.4861 3.76022 10.2901 4.25724 9.93406 4.63106L5.82953 8.94086L1.72496 4.63106C0.990039 3.85935 0.990039 2.60374 1.72496 1.83203ZM13.6109 15.6771H11.9627V18.1491L9.43316 15.6771H8.01695C5.14066 15.6771 2.80066 13.2201 2.80066 10.2C2.80066 9.42726 2.95477 8.67044 3.24996 7.97387L5.82957 10.6825L10.7635 5.50186C10.9877 5.26647 11.1696 5.00332 11.3095 4.72285H13.6109C16.4871 4.72285 18.8272 7.17985 18.8272 10.2C18.8272 13.2201 16.4871 15.6771 13.6109 15.6771Z" fill="#999999"/>
<path d="M7.61523 9.84973H8.8548V11.0813H7.61523V9.84973Z" fill="#999999"/>
<path d="M10.3521 9.84973H11.5916V11.0813H10.3521V9.84973Z" fill="#999999"/>
<path d="M13.0889 9.84973H14.3284V11.0813H13.0889V9.84973Z" fill="#999999"/>
</g>
<defs>
<clipPath id="clip0_785_831">
<rect width="20" height="21" fill="white"/>
</clipPath>
</defs>
</svg>
