<svg width="24" height="24" viewBox="0 0 24 24" fill="none" xmlns="http://www.w3.org/2000/svg">
<path d="M21.1663 9.47925H2.83301C2.45717 9.47925 2.14551 9.16758 2.14551 8.79175C2.14551 8.41591 2.45717 8.10425 2.83301 8.10425H21.1663C21.5422 8.10425 21.8538 8.41591 21.8538 8.79175C21.8538 9.16758 21.5422 9.47925 21.1663 9.47925Z" fill="black"/>
<path d="M8.33333 16.8125H6.5C6.12417 16.8125 5.8125 16.5008 5.8125 16.125C5.8125 15.7492 6.12417 15.4375 6.5 15.4375H8.33333C8.70917 15.4375 9.02083 15.7492 9.02083 16.125C9.02083 16.5008 8.70917 16.8125 8.33333 16.8125Z" fill="black"/>
<path d="M14.2917 16.8125H10.625C10.2492 16.8125 9.9375 16.5008 9.9375 16.125C9.9375 15.7492 10.2492 15.4375 10.625 15.4375H14.2917C14.6675 15.4375 14.9792 15.7492 14.9792 16.125C14.9792 16.5008 14.6675 16.8125 14.2917 16.8125Z" fill="black"/>
<path d="M17.0963 20.4791H6.90301C3.25467 20.4791 2.14551 19.3791 2.14551 15.7674V8.23242C2.14551 4.62075 3.25467 3.52075 6.90301 3.52075H17.0872C20.7355 3.52075 21.8447 4.62075 21.8447 8.23242V15.7583C21.8538 19.3791 20.7447 20.4791 17.0963 20.4791ZM6.90301 4.89575C4.02467 4.89575 3.52051 5.39075 3.52051 8.23242V15.7583C3.52051 18.5999 4.02467 19.0949 6.90301 19.0949H17.0872C19.9655 19.0949 20.4697 18.5999 20.4697 15.7583V8.23242C20.4697 5.39075 19.9655 4.89575 17.0872 4.89575H6.90301Z" fill="black"/>
</svg>
