<svg width="31" height="31" viewBox="0 0 31 31" fill="none" xmlns="http://www.w3.org/2000/svg">
<g clip-path="url(#clip0_27_851)">
<path d="M5.22288 11.7668L5.22287 18.8224C5.22287 19.1962 5.52495 19.4983 5.89871 19.4983L24.6911 19.4983C25.0649 19.4983 25.367 19.1962 25.367 18.8224L25.3679 11.7677C25.3679 11.588 25.2972 11.4169 25.1701 11.2898C25.0429 11.1626 24.8713 11.0914 24.6921 11.0919L5.89967 11.091C5.71995 11.091 5.54837 11.1622 5.42171 11.2888C5.29505 11.4155 5.22335 11.5876 5.22288 11.7668ZM8.17476 12.4426L8.17667 15.2932C8.17714 15.6665 8.47921 15.9695 8.85346 15.969C9.22674 15.9685 9.52929 15.666 9.52881 15.2927L9.5269 12.4421L11.3307 12.4421L11.3302 14.1155C11.3298 14.4897 11.6323 14.7913 12.0056 14.7918C12.3789 14.7923 12.6814 14.4897 12.6814 14.116L12.6824 12.4421H14.4853L14.4853 15.2937C14.4853 15.6674 14.7873 15.9695 15.1611 15.9695C15.5349 15.9695 15.8369 15.6674 15.8369 15.2937L15.8374 12.4426H17.6393L17.6407 14.1179C17.6412 14.4912 17.9428 14.7937 18.3171 14.7932C18.6908 14.7932 18.9934 14.4907 18.9929 14.1174L18.9919 12.4426L20.7953 12.4431L20.7953 15.2927C20.7953 15.6665 21.0974 15.9685 21.4711 15.9685C21.8449 15.9685 22.147 15.6665 22.147 15.2927L22.147 12.4431L24.0167 12.4431L24.0158 18.1461L6.57502 18.1461L6.57502 12.4421L8.17476 12.4426Z" fill="#777777"/>
</g>
<defs>
<clipPath id="clip0_27_851">
<rect width="21.63" height="21.63" fill="white" transform="translate(15.2949 30.5894) rotate(-135)"/>
</clipPath>
</defs>
</svg>
