<svg width="33" height="35" viewBox="0 0 33 35" fill="none" xmlns="http://www.w3.org/2000/svg">
<path d="M29.8787 14.8816H26.2449C26.6328 12.7366 26.7661 10.5472 26.6416 8.36592L26.6171 7.90808L26.1922 7.85511C23.802 7.56172 21.4653 6.88847 19.2581 5.85727C17.2586 4.92075 15.3856 3.69764 13.6897 2.22106L13.5493 2.09998H13.1385L12.998 2.22106C11.3042 3.70268 9.42934 4.92621 7.42615 5.85727C5.22058 6.8897 2.88483 7.563 0.495514 7.85511L0.0741989 7.90808L0.0426003 8.36214C-0.204507 12.8278 0.62652 17.2863 2.45463 21.3027C2.74253 21.927 3.01638 22.4719 3.29024 22.9713C5.62984 27.2021 9.03996 30.6265 13.1209 32.8432L13.2298 32.9H13.5212L13.63 32.8432C15.1252 32.0368 16.5374 31.0627 17.8432 29.9373H29.9209C30.7399 29.9244 31.5214 29.5655 32.0973 28.9378C32.6732 28.3101 32.9973 27.4638 33 26.5811V18.2567C33.0009 17.8142 32.9209 17.3758 32.7645 16.9666C32.6081 16.5574 32.3784 16.1854 32.0885 15.8719C31.7986 15.5585 31.4543 15.3097 31.0751 15.1397C30.6959 14.9698 30.2894 14.8821 29.8787 14.8816ZM13.3386 31.7459C9.52883 29.6224 6.34709 26.3914 4.15394 22.4189C3.89412 21.9421 3.6308 21.42 3.35344 20.8221C1.67722 17.1136 0.885608 13.0131 1.05025 8.89187C3.3877 8.56056 5.67079 7.87921 7.83342 6.86754C9.80145 5.94711 11.6516 4.7581 13.3386 3.32971C15.0283 4.7578 16.8808 5.94675 18.8508 6.86754C21.018 7.8795 23.3059 8.55961 25.648 8.88808C25.725 10.898 25.5752 12.9106 25.2021 14.8816H13.939C13.5283 14.8821 13.1218 14.9698 12.7426 15.1397C12.3635 15.3097 12.0191 15.5585 11.7292 15.8719C11.4394 16.1854 11.2096 16.5574 11.0532 16.9666C10.8968 17.3758 10.8168 17.8142 10.8177 18.2567V26.5811C10.8177 27.4735 11.1465 28.3295 11.7317 28.961C12.317 29.5924 13.1109 29.9476 13.939 29.9486H16.1052C15.2241 30.6183 14.2995 31.2189 13.3386 31.7459ZM31.9783 26.5811C31.9783 27.1832 31.7564 27.7606 31.3613 28.1864C30.9662 28.6121 30.4304 28.8513 29.8717 28.8513H13.939C13.3803 28.8513 12.8445 28.6121 12.4494 28.1864C12.0544 27.7606 11.8324 27.1832 11.8324 26.5811V18.2567C11.8324 17.6546 12.0544 17.0772 12.4494 16.6514C12.8445 16.2257 13.3803 15.9865 13.939 15.9865H29.8787C30.4374 15.9865 30.9733 16.2257 31.3683 16.6514C31.7634 17.0772 31.9853 17.6546 31.9853 18.2567L31.9783 26.5811Z" fill="#C2B280"/>
<path d="M14.0576 25.0985H15.9749V26.117H14.0576V25.0985Z" fill="#C2B280"/>
<path d="M19.7139 25.0985H23.4528V26.117H19.7139V25.0985Z" fill="#C2B280"/>
<path d="M27.1953 25.0985H29.1126V26.117H27.1953V25.0985Z" fill="#C2B280"/>
<path d="M20.0834 22.6835C20.1465 22.6839 20.2091 22.6712 20.2675 22.6459C20.326 22.6206 20.3791 22.5833 20.4239 22.5361C20.4687 22.4889 20.5042 22.4328 20.5285 22.371C20.5527 22.3092 20.5652 22.2429 20.5652 22.176V18.0845C20.5652 17.949 20.5145 17.819 20.4241 17.7232C20.3337 17.6273 20.2112 17.5735 20.0834 17.5735H14.0576C13.9945 17.5735 13.932 17.5867 13.8737 17.6124C13.8155 17.6382 13.7626 17.6759 13.7181 17.7234C13.6736 17.7709 13.6384 17.8272 13.6146 17.8892C13.5907 17.9512 13.5787 18.0175 13.5791 18.0845V22.176C13.5791 22.3106 13.6295 22.4397 13.7193 22.5348C13.809 22.63 13.9307 22.6835 14.0576 22.6835H20.0834ZM14.5361 18.592H19.6049V21.665H14.5361V18.592Z" fill="#C2B280"/>
</svg>
