<svg width="25" height="25" viewBox="0 0 25 25" fill="none" xmlns="http://www.w3.org/2000/svg">
<path d="M18.5937 23.4375H6.40625C3.82812 23.4375 1.71875 21.3281 1.71875 18.75V18.5937L2.1875 6.09375C2.26562 3.51562 4.375 1.5625 6.875 1.5625H18.125C20.625 1.5625 22.7344 3.51562 22.8125 6.09375L23.2812 18.5937C23.3594 19.8437 22.8906 21.0156 22.0312 21.9531C21.1719 22.8906 20 23.4375 18.75 23.4375C18.75 23.4375 18.6719 23.4375 18.5937 23.4375ZM6.875 3.125C5.15625 3.125 3.82812 4.45312 3.75 6.09375L3.28125 18.75C3.28125 20.4687 4.6875 21.875 6.40625 21.875H18.75C19.6094 21.875 20.3906 21.4844 20.9375 20.8594C21.4844 20.2344 21.7969 19.4531 21.7969 18.5937L21.3281 6.09375C21.25 4.375 19.9219 3.125 18.2031 3.125H6.875Z" fill="black"/>
<path d="M12.5 10.9375C9.45312 10.9375 7.03125 8.51562 7.03125 5.46875C7.03125 5 7.34375 4.6875 7.8125 4.6875C8.28125 4.6875 8.59375 5 8.59375 5.46875C8.59375 7.65625 10.3125 9.375 12.5 9.375C14.6875 9.375 16.4062 7.65625 16.4062 5.46875C16.4062 5 16.7187 4.6875 17.1875 4.6875C17.6562 4.6875 17.9687 5 17.9687 5.46875C17.9687 8.51562 15.5469 10.9375 12.5 10.9375Z" fill="black"/>
</svg>
