<svg width="35" height="35" viewBox="0 0 35 35" fill="none" xmlns="http://www.w3.org/2000/svg">
<path d="M24.5073 21.4885C24.3751 21.4891 24.247 21.4428 24.1458 21.3577L19.9381 17.95C19.8719 17.8952 19.8187 17.8264 19.7821 17.7486C19.7455 17.6708 19.7266 17.5859 19.7266 17.5V8.07692C19.7266 7.92391 19.7873 7.77717 19.8955 7.66898C20.0037 7.56078 20.1505 7.5 20.3035 7.5C20.4565 7.5 20.6032 7.56078 20.7114 7.66898C20.8196 7.77717 20.8804 7.92391 20.8804 8.07692V17.2269L24.8727 20.4615C24.9677 20.5375 25.0362 20.6416 25.0685 20.7588C25.1008 20.876 25.0953 21.0005 25.0526 21.1144C25.0099 21.2283 24.9324 21.3258 24.831 21.393C24.7296 21.4601 24.6096 21.4936 24.4881 21.4885H24.5073Z" fill="#C2B280"/>
<path d="M14.5115 23.8H8.07692C7.92391 23.8 7.77717 23.7392 7.66898 23.631C7.56078 23.5229 7.5 23.3761 7.5 23.2231C7.5 23.0701 7.56078 22.9233 7.66898 22.8152C7.77717 22.707 7.92391 22.6462 8.07692 22.6462H14.5115C14.6645 22.6462 14.8113 22.707 14.9195 22.8152C15.0277 22.9233 15.0885 23.0701 15.0885 23.2231C15.0885 23.3761 15.0277 23.5229 14.9195 23.631C14.8113 23.7392 14.6645 23.8 14.5115 23.8Z" fill="#C2B280"/>
<path d="M11.8999 17.6077H1.07302C0.920007 17.6077 0.773265 17.5469 0.665071 17.4387C0.556877 17.3305 0.496094 17.1838 0.496094 17.0308C0.496094 16.8778 0.556877 16.731 0.665071 16.6228C0.773265 16.5146 0.920007 16.4539 1.07302 16.4539H11.8999C12.053 16.4539 12.1997 16.5146 12.3079 16.6228C12.4161 16.731 12.4769 16.8778 12.4769 17.0308C12.4769 17.1838 12.4161 17.3305 12.3079 17.4387C12.1997 17.5469 12.053 17.6077 11.8999 17.6077Z" fill="#C2B280"/>
<path d="M7.7805 11.3462H3.93434C3.78134 11.3462 3.63459 11.2854 3.5264 11.1772C3.4182 11.069 3.35742 10.9223 3.35742 10.7692C3.35742 10.6162 3.4182 10.4695 3.5264 10.3613C3.63459 10.2531 3.78134 10.1923 3.93434 10.1923H7.7805C7.93351 10.1923 8.08025 10.2531 8.18845 10.3613C8.29664 10.4695 8.35742 10.6162 8.35742 10.7692C8.35742 10.9223 8.29664 11.069 8.18845 11.1772C8.08025 11.2854 7.93351 11.3462 7.7805 11.3462Z" fill="#C2B280"/>
<path d="M20.3035 28.4616C20.1505 28.4616 20.0037 28.4008 19.8955 28.2926C19.7873 28.1844 19.7266 28.0376 19.7266 27.8846V27.7692C19.7266 27.6162 19.7873 27.4695 19.8955 27.3613C20.0037 27.2531 20.1505 27.1923 20.3035 27.1923C20.4565 27.1923 20.6032 27.2531 20.7114 27.3613C20.8196 27.4695 20.8804 27.6162 20.8804 27.7692V27.8846C20.8804 28.0376 20.8196 28.1844 20.7114 28.2926C20.6032 28.4008 20.4565 28.4616 20.3035 28.4616Z" fill="#C2B280"/>
<path d="M31.0497 18.0769H30.9343C30.7813 18.0769 30.6346 18.0162 30.5264 17.908C30.4182 17.7998 30.3574 17.653 30.3574 17.5C30.3574 17.347 30.4182 17.2003 30.5264 17.0921C30.6346 16.9839 30.7813 16.9231 30.9343 16.9231H31.0497C31.2027 16.9231 31.3495 16.9839 31.4577 17.0921C31.5659 17.2003 31.6267 17.347 31.6267 17.5C31.6267 17.653 31.5659 17.7998 31.4577 17.908C31.3495 18.0162 31.2027 18.0769 31.0497 18.0769Z" fill="#C2B280"/>
<path d="M6.84976 19.9462C6.71086 19.9465 6.57658 19.8964 6.47187 19.8051C6.36717 19.7138 6.29917 19.5877 6.28053 19.45C6.19182 18.8039 6.1494 18.1522 6.1536 17.5C6.1536 17.347 6.21439 17.2003 6.32258 17.0921C6.43078 16.9839 6.57752 16.9231 6.73053 16.9231C6.88354 16.9231 7.03028 16.9839 7.13847 17.0921C7.24667 17.2003 7.30745 17.347 7.30745 17.5C7.30752 18.0983 7.34864 18.6958 7.43053 19.2885C7.44073 19.3646 7.43563 19.442 7.41552 19.5162C7.3954 19.5903 7.36068 19.6597 7.31339 19.7203C7.2661 19.7808 7.20719 19.8313 7.14013 19.8688C7.07306 19.9062 6.99918 19.9299 6.92284 19.9385L6.84976 19.9462Z" fill="#C2B280"/>
<path d="M20.3037 31.6577C18.4009 31.6644 16.5166 31.2843 14.7652 30.5405C13.0137 29.7967 11.4317 28.7047 10.1153 27.3308C10.0275 27.2179 9.98472 27.0765 9.99529 26.9339C10.0059 26.7913 10.069 26.6577 10.1725 26.559C10.2759 26.4604 10.4124 26.4036 10.5553 26.3998C10.6982 26.396 10.8375 26.4454 10.946 26.5384C12.1553 27.7995 13.6085 28.8014 15.2172 29.4831C16.826 30.1648 18.5566 30.5121 20.3037 30.5038C22.6215 30.5032 24.8969 29.8831 26.8945 28.7077C28.8921 27.5323 30.5393 25.8444 31.6655 23.8187C32.7917 21.793 33.3561 19.5031 33.3001 17.186C33.2441 14.8689 32.5699 12.6089 31.3472 10.6399C30.1245 8.67094 28.3978 7.06452 26.3457 5.98696C24.2937 4.90941 21.991 4.39988 19.6759 4.51112C17.3608 4.62237 15.1176 5.35034 13.1783 6.61968C11.2391 7.88902 9.67431 9.6536 8.64603 11.7308C8.57768 11.868 8.45764 11.9724 8.3123 12.0211C8.16695 12.0698 8.00823 12.0587 7.87103 11.9904C7.73383 11.922 7.6294 11.802 7.58071 11.6566C7.53202 11.5113 7.54307 11.3526 7.61141 11.2154C8.73099 8.95286 10.435 7.03073 12.547 5.64801C14.659 4.26529 17.1022 3.47223 19.6236 3.35095C22.1451 3.22967 24.6531 3.78458 26.888 4.95822C29.123 6.13186 31.0036 7.88156 32.3351 10.0262C33.6667 12.1708 34.4008 14.6323 34.4614 17.156C34.5221 19.6796 33.907 22.1736 32.68 24.3797C31.453 26.5858 29.6586 28.4238 27.4826 29.7034C25.3066 30.983 22.8281 31.6577 20.3037 31.6577Z" fill="#C2B280"/>
<path d="M4.82321 23.8H3.77321C3.6202 23.8 3.47346 23.7392 3.36527 23.631C3.25707 23.5229 3.19629 23.3761 3.19629 23.2231C3.19629 23.0701 3.25707 22.9233 3.36527 22.8152C3.47346 22.707 3.6202 22.6462 3.77321 22.6462H4.82321C4.97622 22.6462 5.12296 22.707 5.23116 22.8152C5.33935 22.9233 5.40014 23.0701 5.40014 23.2231C5.40014 23.3761 5.33935 23.5229 5.23116 23.631C5.12296 23.7392 4.97622 23.8 4.82321 23.8Z" fill="#C2B280"/>
<path d="M7.37673 13.7231C7.27959 13.722 7.18428 13.6965 7.09954 13.649C7.01479 13.6015 6.94332 13.5335 6.89166 13.4512C6.83999 13.3689 6.8098 13.275 6.80383 13.178C6.79786 13.0811 6.81632 12.9842 6.8575 12.8962L7.6575 11.2231C7.69008 11.1547 7.73582 11.0933 7.7921 11.0425C7.84839 10.9918 7.91413 10.9526 7.98556 10.9272C8.05699 10.9019 8.13271 10.8908 8.20841 10.8947C8.28411 10.8987 8.35829 10.9174 8.42673 10.95C8.49517 10.9826 8.55652 11.0283 8.60728 11.0846C8.65804 11.1409 8.69722 11.2066 8.72258 11.2781C8.74794 11.3495 8.75898 11.4252 8.75507 11.5009C8.75116 11.5766 8.73238 11.6508 8.69981 11.7192L7.89981 13.3962C7.85212 13.4943 7.77777 13.577 7.68526 13.6348C7.59275 13.6926 7.48582 13.7232 7.37673 13.7231Z" fill="#C2B280"/>
</svg>
