<svg width="22" height="15" viewBox="0 0 22 15" fill="none" xmlns="http://www.w3.org/2000/svg">
<path d="M21.8186 7.44189L18.1212 3.62158C17.9998 3.49611 17.8326 3.4253 17.6581 3.4253H15.2953V0.644531C15.2953 0.288578 15.0067 0 14.6508 0H2.67949C2.32354 0 2.03496 0.288578 2.03496 0.644531V2.57873H1.54709C1.19114 2.57873 0.902559 2.86731 0.902559 3.22326C0.902559 3.57921 1.19114 3.86779 1.54709 3.86779H2.03496V5.15746H0.644531C0.288578 5.15746 0 5.44603 0 5.80199C0 6.15794 0.288578 6.44652 0.644531 6.44652H2.03496V12.3658C2.03496 12.7217 2.32354 13.0103 2.67949 13.0103H4.05144C4.17639 13.4262 4.40297 13.8074 4.7187 14.1231C5.22152 14.626 5.89007 14.9029 6.60116 14.9029C7.31225 14.9029 7.98076 14.626 8.48362 14.1231C8.80314 13.8036 9.02391 13.4223 9.14672 13.0174H15.3018C15.4246 13.4223 15.6454 13.8036 15.9649 14.1231C16.4677 14.626 17.1362 14.9029 17.8473 14.9029C18.5584 14.9029 19.2269 14.626 19.7298 14.1231C20.0493 13.8036 20.2701 13.4223 20.3929 13.0174H21.3555C21.7114 13.0174 22 12.7288 22 12.3729V7.89014C22 7.72282 21.9349 7.56212 21.8186 7.44189ZM19.8347 7.24561H15.2772V4.71436H17.3849L19.8347 7.24561ZM3.32402 6.44648H6.67872C7.03467 6.44648 7.32325 6.1579 7.32325 5.80194C7.32325 5.44599 7.03467 5.15741 6.67872 5.15741H3.32402V3.86775H7.1515C7.50746 3.86775 7.79603 3.57917 7.79603 3.22322C7.79603 2.86726 7.50746 2.57868 7.1515 2.57868H3.32402V1.28902H7.1515H14.0062L13.9881 11.7282H9.21267C9.11492 11.2258 8.87193 10.7464 8.48362 10.358C7.9808 9.85514 7.31225 9.57825 6.60116 9.57825C5.89007 9.57825 5.22156 9.85514 4.7187 10.358C4.34057 10.7361 4.09028 11.208 3.98935 11.7211H3.32402V6.44648ZM7.57212 13.2116C7.31277 13.471 6.9679 13.6138 6.60116 13.6138C6.23442 13.6138 5.88955 13.471 5.6302 13.2116C5.37084 12.9522 5.22801 12.6074 5.22801 12.2406C5.22801 11.8738 5.37084 11.5289 5.6302 11.2695C5.88955 11.0102 6.23442 10.8674 6.60116 10.8674C6.9679 10.8674 7.31277 11.0102 7.57212 11.2695C8.10752 11.805 8.10752 12.6762 7.57212 13.2116ZM18.8182 13.2116C18.5588 13.471 18.214 13.6138 17.8472 13.6138C17.4805 13.6138 17.1356 13.471 16.8763 13.2116C16.3409 12.6762 16.3409 11.805 16.8763 11.2696C17.1356 11.0102 17.4805 10.8674 17.8472 10.8674C18.214 10.8674 18.5588 11.0102 18.8182 11.2696C19.0776 11.5289 19.2204 11.8738 19.2204 12.2406C19.2204 12.6074 19.0776 12.9522 18.8182 13.2116ZM20.4588 11.7283C20.361 11.2259 20.1181 10.7464 19.7297 10.3581C19.2269 9.85519 18.5583 9.5783 17.8472 9.5783C17.1362 9.5783 16.4676 9.85519 15.9648 10.3581C15.6224 10.7005 15.3937 11.1138 15.2772 11.5512V8.53467H20.7109V11.7283H20.4588Z" fill="black"/>
</svg>
