<svg width="19" height="19" viewBox="0 0 19 19" fill="none" xmlns="http://www.w3.org/2000/svg">
<path d="M9.5 0C6.73762 0 4.49023 2.24738 4.49023 5.00977C4.49023 7.77215 6.73762 10.0195 9.5 10.0195C12.2624 10.0195 14.5098 7.77215 14.5098 5.00977C14.5098 2.24738 12.2624 0 9.5 0ZM9.5 8.90625C7.35148 8.90625 5.60352 7.15829 5.60352 5.00977C5.60352 2.86124 7.35148 1.11328 9.5 1.11328C11.6485 1.11328 13.3965 2.86124 13.3965 5.00977C13.3965 7.15829 11.6485 8.90625 9.5 8.90625Z" fill="black"/>
<path d="M15.7331 13.2924C14.3616 11.8998 12.5433 11.1328 10.6133 11.1328H8.38672C6.45673 11.1328 4.63845 11.8998 3.26689 13.2924C1.90204 14.6782 1.15039 16.5075 1.15039 18.4434C1.15039 18.7508 1.39962 19 1.70703 19H17.293C17.6004 19 17.8496 18.7508 17.8496 18.4434C17.8496 16.5075 17.098 14.6782 15.7331 13.2924ZM2.28816 17.8867C2.56704 14.7292 5.19572 12.2461 8.38672 12.2461H10.6133C13.8043 12.2461 16.433 14.7292 16.7118 17.8867H2.28816Z" fill="black"/>
</svg>
